<mxfile host="app.diagrams.net" modified="2022-03-15T11:37:30.567Z" agent="5.0 (Windows NT 10.0; WOW64) AppleWebKit/537.36 (KHTML, like Gecko) Chrome/98.0.4758.102 Safari/537.36" etag="5j9jgZTT7y1gfZP_Mv_N" version="16.6.3" type="github">
  <diagram id="6thAdPjS7A8F6nOXeu-O" name="Architecture">
    <mxGraphModel dx="2805" dy="3370" grid="1" gridSize="10" guides="1" tooltips="1" connect="1" arrows="1" fold="1" page="1" pageScale="1" pageWidth="850" pageHeight="1100" math="0" shadow="0">
      <root>
        <mxCell id="0" />
        <mxCell id="1" parent="0" />
        <mxCell id="3HXj9T3aMn66V00mDMrL-8" value="Origin&lt;br&gt;Messaging&lt;br&gt;Bus" style="rounded=0;whiteSpace=wrap;html=1;fillColor=#dae8fc;strokeColor=#6c8ebf;" parent="1" vertex="1">
          <mxGeometry x="480" y="160" width="120" height="60" as="geometry" />
        </mxCell>
        <mxCell id="3HXj9T3aMn66V00mDMrL-52" value="" style="group" parent="1" vertex="1" connectable="0">
          <mxGeometry x="-60" y="340" width="350" height="610" as="geometry" />
        </mxCell>
        <mxCell id="3HXj9T3aMn66V00mDMrL-3" value="Buying Station" style="rounded=0;whiteSpace=wrap;html=1;fillColor=#fff2cc;strokeColor=#d6b656;verticalAlign=top;fontStyle=1" parent="3HXj9T3aMn66V00mDMrL-52" vertex="1">
          <mxGeometry width="350" height="610" as="geometry" />
        </mxCell>
        <mxCell id="aJg2sd6ix5H9_igBOGMG-10" value="" style="group" vertex="1" connectable="0" parent="3HXj9T3aMn66V00mDMrL-52">
          <mxGeometry x="25" y="30" width="300" height="560" as="geometry" />
        </mxCell>
        <mxCell id="3HXj9T3aMn66V00mDMrL-32" value="ETL&lt;br&gt;Azure Data Factory" style="rounded=1;whiteSpace=wrap;html=1;" parent="aJg2sd6ix5H9_igBOGMG-10" vertex="1">
          <mxGeometry x="90" width="120" height="60" as="geometry" />
        </mxCell>
        <mxCell id="3HXj9T3aMn66V00mDMrL-36" value="Producer" style="rounded=1;whiteSpace=wrap;html=1;" parent="aJg2sd6ix5H9_igBOGMG-10" vertex="1">
          <mxGeometry x="180" y="80" width="120" height="60" as="geometry" />
        </mxCell>
        <mxCell id="3HXj9T3aMn66V00mDMrL-51" style="edgeStyle=orthogonalEdgeStyle;rounded=0;orthogonalLoop=1;jettySize=auto;html=1;entryX=0;entryY=0.5;entryDx=0;entryDy=0;startArrow=none;startFill=0;" parent="aJg2sd6ix5H9_igBOGMG-10" source="3HXj9T3aMn66V00mDMrL-32" target="3HXj9T3aMn66V00mDMrL-36" edge="1">
          <mxGeometry relative="1" as="geometry" />
        </mxCell>
        <mxCell id="3HXj9T3aMn66V00mDMrL-37" value="Consumer" style="rounded=1;whiteSpace=wrap;html=1;" parent="aJg2sd6ix5H9_igBOGMG-10" vertex="1">
          <mxGeometry y="80" width="120" height="60" as="geometry" />
        </mxCell>
        <mxCell id="3HXj9T3aMn66V00mDMrL-49" style="edgeStyle=orthogonalEdgeStyle;rounded=0;orthogonalLoop=1;jettySize=auto;html=1;entryX=1;entryY=0.5;entryDx=0;entryDy=0;startArrow=none;startFill=0;" parent="aJg2sd6ix5H9_igBOGMG-10" source="3HXj9T3aMn66V00mDMrL-32" target="3HXj9T3aMn66V00mDMrL-37" edge="1">
          <mxGeometry relative="1" as="geometry" />
        </mxCell>
        <mxCell id="3HXj9T3aMn66V00mDMrL-38" value="API" style="rounded=1;whiteSpace=wrap;html=1;" parent="aJg2sd6ix5H9_igBOGMG-10" vertex="1">
          <mxGeometry x="90" y="500" width="120" height="60" as="geometry" />
        </mxCell>
        <mxCell id="3HXj9T3aMn66V00mDMrL-39" value="WS" style="rounded=1;whiteSpace=wrap;html=1;" parent="aJg2sd6ix5H9_igBOGMG-10" vertex="1">
          <mxGeometry x="90" y="430" width="120" height="60" as="geometry" />
        </mxCell>
        <mxCell id="3HXj9T3aMn66V00mDMrL-44" value="Data synch down" style="edgeStyle=orthogonalEdgeStyle;rounded=0;orthogonalLoop=1;jettySize=auto;html=1;entryX=0;entryY=0.75;entryDx=0;entryDy=0;startArrow=classic;startFill=1;exitX=0.5;exitY=0;exitDx=0;exitDy=0;" parent="1" source="3HXj9T3aMn66V00mDMrL-36" target="3HXj9T3aMn66V00mDMrL-8" edge="1">
          <mxGeometry relative="1" as="geometry" />
        </mxCell>
        <mxCell id="3HXj9T3aMn66V00mDMrL-43" style="edgeStyle=orthogonalEdgeStyle;rounded=0;orthogonalLoop=1;jettySize=auto;html=1;entryX=0;entryY=0.5;entryDx=0;entryDy=0;startArrow=classic;startFill=1;exitX=0.5;exitY=0;exitDx=0;exitDy=0;" parent="1" source="3HXj9T3aMn66V00mDMrL-37" target="3HXj9T3aMn66V00mDMrL-8" edge="1">
          <mxGeometry relative="1" as="geometry" />
        </mxCell>
        <mxCell id="3HXj9T3aMn66V00mDMrL-48" value="Data synch up" style="edgeLabel;html=1;align=center;verticalAlign=middle;resizable=0;points=[];" parent="3HXj9T3aMn66V00mDMrL-43" vertex="1" connectable="0">
          <mxGeometry x="-0.0552" y="-2" relative="1" as="geometry">
            <mxPoint x="-1" as="offset" />
          </mxGeometry>
        </mxCell>
        <mxCell id="3HXj9T3aMn66V00mDMrL-104" style="edgeStyle=orthogonalEdgeStyle;rounded=0;orthogonalLoop=1;jettySize=auto;html=1;entryX=0;entryY=0.25;entryDx=0;entryDy=0;startArrow=classic;startFill=1;exitX=0.25;exitY=1;exitDx=0;exitDy=0;" parent="1" source="3HXj9T3aMn66V00mDMrL-97" target="3HXj9T3aMn66V00mDMrL-8" edge="1">
          <mxGeometry relative="1" as="geometry" />
        </mxCell>
        <mxCell id="3HXj9T3aMn66V00mDMrL-13" value="Local&lt;br&gt;DB" style="shape=cylinder3;whiteSpace=wrap;html=1;boundedLbl=1;backgroundOutline=1;size=15;fillColor=#dae8fc;strokeColor=#6c8ebf;" parent="1" vertex="1">
          <mxGeometry x="90" y="1150" width="60" height="80" as="geometry" />
        </mxCell>
        <mxCell id="3HXj9T3aMn66V00mDMrL-42" style="edgeStyle=orthogonalEdgeStyle;rounded=0;orthogonalLoop=1;jettySize=auto;html=1;entryX=1;entryY=0;entryDx=0;entryDy=52.5;entryPerimeter=0;startArrow=classic;startFill=1;exitX=0.5;exitY=1;exitDx=0;exitDy=0;" parent="1" source="3HXj9T3aMn66V00mDMrL-36" target="3HXj9T3aMn66V00mDMrL-13" edge="1">
          <mxGeometry relative="1" as="geometry" />
        </mxCell>
        <mxCell id="3HXj9T3aMn66V00mDMrL-41" style="edgeStyle=orthogonalEdgeStyle;rounded=0;orthogonalLoop=1;jettySize=auto;html=1;entryX=0;entryY=0;entryDx=0;entryDy=52.5;entryPerimeter=0;startArrow=classic;startFill=1;exitX=0.5;exitY=1;exitDx=0;exitDy=0;" parent="1" source="3HXj9T3aMn66V00mDMrL-37" target="3HXj9T3aMn66V00mDMrL-13" edge="1">
          <mxGeometry relative="1" as="geometry" />
        </mxCell>
        <mxCell id="3HXj9T3aMn66V00mDMrL-45" value="Command" style="edgeStyle=orthogonalEdgeStyle;rounded=0;orthogonalLoop=1;jettySize=auto;html=1;startArrow=none;startFill=0;exitX=0;exitY=0.5;exitDx=0;exitDy=0;entryX=0;entryY=0;entryDx=0;entryDy=15;entryPerimeter=0;" parent="1" source="3HXj9T3aMn66V00mDMrL-38" target="3HXj9T3aMn66V00mDMrL-13" edge="1">
          <mxGeometry relative="1" as="geometry" />
        </mxCell>
        <mxCell id="3HXj9T3aMn66V00mDMrL-105" style="edgeStyle=orthogonalEdgeStyle;rounded=0;orthogonalLoop=1;jettySize=auto;html=1;entryX=1;entryY=0.25;entryDx=0;entryDy=0;startArrow=classic;startFill=1;exitX=0.75;exitY=1;exitDx=0;exitDy=0;" parent="1" source="3HXj9T3aMn66V00mDMrL-94" target="3HXj9T3aMn66V00mDMrL-8" edge="1">
          <mxGeometry relative="1" as="geometry" />
        </mxCell>
        <mxCell id="3HXj9T3aMn66V00mDMrL-47" value="Query" style="edgeStyle=orthogonalEdgeStyle;rounded=0;orthogonalLoop=1;jettySize=auto;html=1;entryX=1;entryY=0;entryDx=0;entryDy=15;entryPerimeter=0;startArrow=none;startFill=0;exitX=1;exitY=0.5;exitDx=0;exitDy=0;" parent="1" source="3HXj9T3aMn66V00mDMrL-38" target="3HXj9T3aMn66V00mDMrL-13" edge="1">
          <mxGeometry relative="1" as="geometry">
            <Array as="points">
              <mxPoint x="190" y="900" />
              <mxPoint x="190" y="1165" />
            </Array>
          </mxGeometry>
        </mxCell>
        <mxCell id="aJg2sd6ix5H9_igBOGMG-11" value="" style="group" vertex="1" connectable="0" parent="1">
          <mxGeometry x="380" y="340" width="350" height="890" as="geometry" />
        </mxCell>
        <mxCell id="3HXj9T3aMn66V00mDMrL-53" value="" style="group" parent="aJg2sd6ix5H9_igBOGMG-11" vertex="1" connectable="0">
          <mxGeometry width="350" height="610" as="geometry" />
        </mxCell>
        <mxCell id="3HXj9T3aMn66V00mDMrL-54" value="Warehouse Receiving" style="rounded=0;whiteSpace=wrap;html=1;fillColor=#fff2cc;strokeColor=#d6b656;verticalAlign=top;fontStyle=1" parent="3HXj9T3aMn66V00mDMrL-53" vertex="1">
          <mxGeometry width="350" height="610" as="geometry" />
        </mxCell>
        <mxCell id="3HXj9T3aMn66V00mDMrL-56" value="ETL&lt;br&gt;Azure Data Factory" style="rounded=1;whiteSpace=wrap;html=1;" parent="3HXj9T3aMn66V00mDMrL-53" vertex="1">
          <mxGeometry x="115" y="30" width="120" height="60" as="geometry" />
        </mxCell>
        <mxCell id="3HXj9T3aMn66V00mDMrL-58" value="Producer" style="rounded=1;whiteSpace=wrap;html=1;" parent="3HXj9T3aMn66V00mDMrL-53" vertex="1">
          <mxGeometry x="205" y="110" width="120" height="60" as="geometry" />
        </mxCell>
        <mxCell id="3HXj9T3aMn66V00mDMrL-59" style="edgeStyle=orthogonalEdgeStyle;rounded=0;orthogonalLoop=1;jettySize=auto;html=1;entryX=0;entryY=0.5;entryDx=0;entryDy=0;startArrow=none;startFill=0;" parent="3HXj9T3aMn66V00mDMrL-53" source="3HXj9T3aMn66V00mDMrL-56" target="3HXj9T3aMn66V00mDMrL-58" edge="1">
          <mxGeometry relative="1" as="geometry" />
        </mxCell>
        <mxCell id="3HXj9T3aMn66V00mDMrL-61" value="Consumer" style="rounded=1;whiteSpace=wrap;html=1;" parent="3HXj9T3aMn66V00mDMrL-53" vertex="1">
          <mxGeometry x="25" y="110" width="120" height="60" as="geometry" />
        </mxCell>
        <mxCell id="3HXj9T3aMn66V00mDMrL-62" style="edgeStyle=orthogonalEdgeStyle;rounded=0;orthogonalLoop=1;jettySize=auto;html=1;entryX=1;entryY=0.5;entryDx=0;entryDy=0;startArrow=none;startFill=0;" parent="3HXj9T3aMn66V00mDMrL-53" source="3HXj9T3aMn66V00mDMrL-56" target="3HXj9T3aMn66V00mDMrL-61" edge="1">
          <mxGeometry relative="1" as="geometry" />
        </mxCell>
        <mxCell id="3HXj9T3aMn66V00mDMrL-65" value="API" style="rounded=1;whiteSpace=wrap;html=1;" parent="3HXj9T3aMn66V00mDMrL-53" vertex="1">
          <mxGeometry x="115" y="530" width="120" height="60" as="geometry" />
        </mxCell>
        <mxCell id="3HXj9T3aMn66V00mDMrL-66" value="WS" style="rounded=1;whiteSpace=wrap;html=1;" parent="3HXj9T3aMn66V00mDMrL-53" vertex="1">
          <mxGeometry x="115" y="460" width="120" height="60" as="geometry" />
        </mxCell>
        <mxCell id="3HXj9T3aMn66V00mDMrL-55" value="Local&lt;br&gt;DB" style="shape=cylinder3;whiteSpace=wrap;html=1;boundedLbl=1;backgroundOutline=1;size=15;fillColor=#dae8fc;strokeColor=#6c8ebf;" parent="aJg2sd6ix5H9_igBOGMG-11" vertex="1">
          <mxGeometry x="150" y="810" width="60" height="80" as="geometry" />
        </mxCell>
        <mxCell id="3HXj9T3aMn66V00mDMrL-57" style="edgeStyle=orthogonalEdgeStyle;rounded=0;orthogonalLoop=1;jettySize=auto;html=1;entryX=1;entryY=0;entryDx=0;entryDy=52.5;entryPerimeter=0;startArrow=classic;startFill=1;exitX=0.5;exitY=1;exitDx=0;exitDy=0;" parent="aJg2sd6ix5H9_igBOGMG-11" source="3HXj9T3aMn66V00mDMrL-58" target="3HXj9T3aMn66V00mDMrL-55" edge="1">
          <mxGeometry relative="1" as="geometry" />
        </mxCell>
        <mxCell id="3HXj9T3aMn66V00mDMrL-60" style="edgeStyle=orthogonalEdgeStyle;rounded=0;orthogonalLoop=1;jettySize=auto;html=1;entryX=0;entryY=0;entryDx=0;entryDy=52.5;entryPerimeter=0;startArrow=classic;startFill=1;exitX=0.5;exitY=1;exitDx=0;exitDy=0;" parent="aJg2sd6ix5H9_igBOGMG-11" source="3HXj9T3aMn66V00mDMrL-61" target="3HXj9T3aMn66V00mDMrL-55" edge="1">
          <mxGeometry relative="1" as="geometry" />
        </mxCell>
        <mxCell id="3HXj9T3aMn66V00mDMrL-63" value="Command" style="edgeStyle=orthogonalEdgeStyle;rounded=0;orthogonalLoop=1;jettySize=auto;html=1;startArrow=none;startFill=0;exitX=0;exitY=0.5;exitDx=0;exitDy=0;entryX=0;entryY=0;entryDx=0;entryDy=15;entryPerimeter=0;" parent="aJg2sd6ix5H9_igBOGMG-11" source="3HXj9T3aMn66V00mDMrL-65" target="3HXj9T3aMn66V00mDMrL-55" edge="1">
          <mxGeometry relative="1" as="geometry" />
        </mxCell>
        <mxCell id="3HXj9T3aMn66V00mDMrL-64" value="Query" style="edgeStyle=orthogonalEdgeStyle;rounded=0;orthogonalLoop=1;jettySize=auto;html=1;entryX=1;entryY=0;entryDx=0;entryDy=15;entryPerimeter=0;startArrow=none;startFill=0;exitX=1;exitY=0.5;exitDx=0;exitDy=0;" parent="aJg2sd6ix5H9_igBOGMG-11" source="3HXj9T3aMn66V00mDMrL-65" target="3HXj9T3aMn66V00mDMrL-55" edge="1">
          <mxGeometry relative="1" as="geometry">
            <Array as="points">
              <mxPoint x="250" y="560" />
              <mxPoint x="250" y="825" />
            </Array>
          </mxGeometry>
        </mxCell>
        <mxCell id="aJg2sd6ix5H9_igBOGMG-12" value="" style="group" vertex="1" connectable="0" parent="1">
          <mxGeometry x="830" y="340" width="350" height="890" as="geometry" />
        </mxCell>
        <mxCell id="3HXj9T3aMn66V00mDMrL-69" value="" style="group" parent="aJg2sd6ix5H9_igBOGMG-12" vertex="1" connectable="0">
          <mxGeometry width="350" height="610" as="geometry" />
        </mxCell>
        <mxCell id="3HXj9T3aMn66V00mDMrL-70" value="Factory Operations" style="rounded=0;whiteSpace=wrap;html=1;fillColor=#fff2cc;strokeColor=#d6b656;verticalAlign=top;fontStyle=1" parent="3HXj9T3aMn66V00mDMrL-69" vertex="1">
          <mxGeometry width="350" height="610" as="geometry" />
        </mxCell>
        <mxCell id="3HXj9T3aMn66V00mDMrL-72" value="ETL&lt;br&gt;Azure Data Factory" style="rounded=1;whiteSpace=wrap;html=1;" parent="3HXj9T3aMn66V00mDMrL-69" vertex="1">
          <mxGeometry x="115" y="30" width="120" height="60" as="geometry" />
        </mxCell>
        <mxCell id="3HXj9T3aMn66V00mDMrL-74" value="Producer" style="rounded=1;whiteSpace=wrap;html=1;" parent="3HXj9T3aMn66V00mDMrL-69" vertex="1">
          <mxGeometry x="205" y="110" width="120" height="60" as="geometry" />
        </mxCell>
        <mxCell id="3HXj9T3aMn66V00mDMrL-75" style="edgeStyle=orthogonalEdgeStyle;rounded=0;orthogonalLoop=1;jettySize=auto;html=1;entryX=0;entryY=0.5;entryDx=0;entryDy=0;startArrow=none;startFill=0;" parent="3HXj9T3aMn66V00mDMrL-69" source="3HXj9T3aMn66V00mDMrL-72" target="3HXj9T3aMn66V00mDMrL-74" edge="1">
          <mxGeometry relative="1" as="geometry" />
        </mxCell>
        <mxCell id="3HXj9T3aMn66V00mDMrL-77" value="Consumer" style="rounded=1;whiteSpace=wrap;html=1;" parent="3HXj9T3aMn66V00mDMrL-69" vertex="1">
          <mxGeometry x="25" y="110" width="120" height="60" as="geometry" />
        </mxCell>
        <mxCell id="3HXj9T3aMn66V00mDMrL-78" style="edgeStyle=orthogonalEdgeStyle;rounded=0;orthogonalLoop=1;jettySize=auto;html=1;entryX=1;entryY=0.5;entryDx=0;entryDy=0;startArrow=none;startFill=0;" parent="3HXj9T3aMn66V00mDMrL-69" source="3HXj9T3aMn66V00mDMrL-72" target="3HXj9T3aMn66V00mDMrL-77" edge="1">
          <mxGeometry relative="1" as="geometry" />
        </mxCell>
        <mxCell id="3HXj9T3aMn66V00mDMrL-81" value="API" style="rounded=1;whiteSpace=wrap;html=1;" parent="3HXj9T3aMn66V00mDMrL-69" vertex="1">
          <mxGeometry x="115" y="540" width="120" height="60" as="geometry" />
        </mxCell>
        <mxCell id="3HXj9T3aMn66V00mDMrL-82" value="WS" style="rounded=1;whiteSpace=wrap;html=1;" parent="3HXj9T3aMn66V00mDMrL-69" vertex="1">
          <mxGeometry x="115" y="470" width="120" height="60" as="geometry" />
        </mxCell>
        <mxCell id="3HXj9T3aMn66V00mDMrL-71" value="Local&lt;br&gt;DB" style="shape=cylinder3;whiteSpace=wrap;html=1;boundedLbl=1;backgroundOutline=1;size=15;fillColor=#dae8fc;strokeColor=#6c8ebf;" parent="aJg2sd6ix5H9_igBOGMG-12" vertex="1">
          <mxGeometry x="150" y="810" width="60" height="80" as="geometry" />
        </mxCell>
        <mxCell id="3HXj9T3aMn66V00mDMrL-73" style="edgeStyle=orthogonalEdgeStyle;rounded=0;orthogonalLoop=1;jettySize=auto;html=1;entryX=1;entryY=0;entryDx=0;entryDy=52.5;entryPerimeter=0;startArrow=classic;startFill=1;exitX=0.5;exitY=1;exitDx=0;exitDy=0;" parent="aJg2sd6ix5H9_igBOGMG-12" source="3HXj9T3aMn66V00mDMrL-74" target="3HXj9T3aMn66V00mDMrL-71" edge="1">
          <mxGeometry relative="1" as="geometry" />
        </mxCell>
        <mxCell id="3HXj9T3aMn66V00mDMrL-76" style="edgeStyle=orthogonalEdgeStyle;rounded=0;orthogonalLoop=1;jettySize=auto;html=1;entryX=0;entryY=0;entryDx=0;entryDy=52.5;entryPerimeter=0;startArrow=classic;startFill=1;exitX=0.5;exitY=1;exitDx=0;exitDy=0;" parent="aJg2sd6ix5H9_igBOGMG-12" source="3HXj9T3aMn66V00mDMrL-77" target="3HXj9T3aMn66V00mDMrL-71" edge="1">
          <mxGeometry relative="1" as="geometry" />
        </mxCell>
        <mxCell id="3HXj9T3aMn66V00mDMrL-79" value="Command" style="edgeStyle=orthogonalEdgeStyle;rounded=0;orthogonalLoop=1;jettySize=auto;html=1;startArrow=none;startFill=0;exitX=0;exitY=0.5;exitDx=0;exitDy=0;entryX=0;entryY=0;entryDx=0;entryDy=15;entryPerimeter=0;" parent="aJg2sd6ix5H9_igBOGMG-12" source="3HXj9T3aMn66V00mDMrL-81" target="3HXj9T3aMn66V00mDMrL-71" edge="1">
          <mxGeometry relative="1" as="geometry" />
        </mxCell>
        <mxCell id="3HXj9T3aMn66V00mDMrL-80" value="Query" style="edgeStyle=orthogonalEdgeStyle;rounded=0;orthogonalLoop=1;jettySize=auto;html=1;entryX=1;entryY=0;entryDx=0;entryDy=15;entryPerimeter=0;startArrow=none;startFill=0;exitX=1;exitY=0.5;exitDx=0;exitDy=0;" parent="aJg2sd6ix5H9_igBOGMG-12" source="3HXj9T3aMn66V00mDMrL-81" target="3HXj9T3aMn66V00mDMrL-71" edge="1">
          <mxGeometry relative="1" as="geometry">
            <Array as="points">
              <mxPoint x="250" y="570" />
              <mxPoint x="250" y="825" />
            </Array>
          </mxGeometry>
        </mxCell>
        <mxCell id="aJg2sd6ix5H9_igBOGMG-42" value="" style="group" vertex="1" connectable="0" parent="1">
          <mxGeometry x="370" y="-650" width="350" height="760" as="geometry" />
        </mxCell>
        <mxCell id="3HXj9T3aMn66V00mDMrL-89" value="" style="group" parent="aJg2sd6ix5H9_igBOGMG-42" vertex="1" connectable="0">
          <mxGeometry width="350" height="610" as="geometry" />
        </mxCell>
        <mxCell id="3HXj9T3aMn66V00mDMrL-90" value="Master" style="rounded=0;whiteSpace=wrap;html=1;fillColor=#fff2cc;strokeColor=#d6b656;verticalAlign=top;fontStyle=1" parent="3HXj9T3aMn66V00mDMrL-89" vertex="1">
          <mxGeometry width="350" height="610" as="geometry" />
        </mxCell>
        <mxCell id="3HXj9T3aMn66V00mDMrL-92" value="ETL&lt;br&gt;Azure Data Factory" style="rounded=1;whiteSpace=wrap;html=1;" parent="3HXj9T3aMn66V00mDMrL-89" vertex="1">
          <mxGeometry x="115" y="30" width="120" height="60" as="geometry" />
        </mxCell>
        <mxCell id="3HXj9T3aMn66V00mDMrL-94" value="Producer" style="rounded=1;whiteSpace=wrap;html=1;" parent="3HXj9T3aMn66V00mDMrL-89" vertex="1">
          <mxGeometry x="205" y="110" width="120" height="60" as="geometry" />
        </mxCell>
        <mxCell id="3HXj9T3aMn66V00mDMrL-95" style="edgeStyle=orthogonalEdgeStyle;rounded=0;orthogonalLoop=1;jettySize=auto;html=1;entryX=0;entryY=0.5;entryDx=0;entryDy=0;startArrow=none;startFill=0;" parent="3HXj9T3aMn66V00mDMrL-89" source="3HXj9T3aMn66V00mDMrL-92" target="3HXj9T3aMn66V00mDMrL-94" edge="1">
          <mxGeometry relative="1" as="geometry" />
        </mxCell>
        <mxCell id="3HXj9T3aMn66V00mDMrL-97" value="Consumer" style="rounded=1;whiteSpace=wrap;html=1;" parent="3HXj9T3aMn66V00mDMrL-89" vertex="1">
          <mxGeometry x="25" y="110" width="120" height="60" as="geometry" />
        </mxCell>
        <mxCell id="3HXj9T3aMn66V00mDMrL-98" style="edgeStyle=orthogonalEdgeStyle;rounded=0;orthogonalLoop=1;jettySize=auto;html=1;entryX=1;entryY=0.5;entryDx=0;entryDy=0;startArrow=none;startFill=0;" parent="3HXj9T3aMn66V00mDMrL-89" source="3HXj9T3aMn66V00mDMrL-92" target="3HXj9T3aMn66V00mDMrL-97" edge="1">
          <mxGeometry relative="1" as="geometry" />
        </mxCell>
        <mxCell id="3HXj9T3aMn66V00mDMrL-101" value="API" style="rounded=1;whiteSpace=wrap;html=1;" parent="3HXj9T3aMn66V00mDMrL-89" vertex="1">
          <mxGeometry x="115" y="530" width="120" height="60" as="geometry" />
        </mxCell>
        <mxCell id="3HXj9T3aMn66V00mDMrL-102" value="WS" style="rounded=1;whiteSpace=wrap;html=1;" parent="3HXj9T3aMn66V00mDMrL-89" vertex="1">
          <mxGeometry x="115" y="460" width="120" height="60" as="geometry" />
        </mxCell>
        <mxCell id="3HXj9T3aMn66V00mDMrL-103" value="Logging" style="rounded=1;whiteSpace=wrap;html=1;" parent="3HXj9T3aMn66V00mDMrL-89" vertex="1">
          <mxGeometry x="115" y="390" width="120" height="60" as="geometry" />
        </mxCell>
        <mxCell id="aJg2sd6ix5H9_igBOGMG-40" value="Monitoring" style="rounded=1;whiteSpace=wrap;html=1;" vertex="1" parent="3HXj9T3aMn66V00mDMrL-89">
          <mxGeometry x="115" y="320" width="120" height="60" as="geometry" />
        </mxCell>
        <mxCell id="aJg2sd6ix5H9_igBOGMG-41" value="Tracking" style="rounded=1;whiteSpace=wrap;html=1;" vertex="1" parent="3HXj9T3aMn66V00mDMrL-89">
          <mxGeometry x="115" y="250" width="120" height="60" as="geometry" />
        </mxCell>
        <mxCell id="3HXj9T3aMn66V00mDMrL-91" value="Master&lt;br&gt;DB" style="shape=cylinder3;whiteSpace=wrap;html=1;boundedLbl=1;backgroundOutline=1;size=15;fillColor=#dae8fc;strokeColor=#6c8ebf;" parent="aJg2sd6ix5H9_igBOGMG-42" vertex="1">
          <mxGeometry x="145" y="680" width="60" height="80" as="geometry" />
        </mxCell>
        <mxCell id="3HXj9T3aMn66V00mDMrL-93" style="edgeStyle=orthogonalEdgeStyle;rounded=0;orthogonalLoop=1;jettySize=auto;html=1;entryX=1;entryY=0;entryDx=0;entryDy=52.5;entryPerimeter=0;startArrow=classic;startFill=1;exitX=0.5;exitY=1;exitDx=0;exitDy=0;" parent="aJg2sd6ix5H9_igBOGMG-42" source="3HXj9T3aMn66V00mDMrL-94" target="3HXj9T3aMn66V00mDMrL-91" edge="1">
          <mxGeometry relative="1" as="geometry" />
        </mxCell>
        <mxCell id="3HXj9T3aMn66V00mDMrL-96" style="edgeStyle=orthogonalEdgeStyle;rounded=0;orthogonalLoop=1;jettySize=auto;html=1;entryX=0;entryY=0;entryDx=0;entryDy=52.5;entryPerimeter=0;startArrow=classic;startFill=1;exitX=0.5;exitY=1;exitDx=0;exitDy=0;" parent="aJg2sd6ix5H9_igBOGMG-42" source="3HXj9T3aMn66V00mDMrL-97" target="3HXj9T3aMn66V00mDMrL-91" edge="1">
          <mxGeometry relative="1" as="geometry" />
        </mxCell>
        <mxCell id="3HXj9T3aMn66V00mDMrL-99" value="Command" style="edgeStyle=orthogonalEdgeStyle;rounded=0;orthogonalLoop=1;jettySize=auto;html=1;startArrow=none;startFill=0;exitX=0;exitY=0.5;exitDx=0;exitDy=0;entryX=0;entryY=0;entryDx=0;entryDy=15;entryPerimeter=0;" parent="aJg2sd6ix5H9_igBOGMG-42" source="3HXj9T3aMn66V00mDMrL-101" target="3HXj9T3aMn66V00mDMrL-91" edge="1">
          <mxGeometry relative="1" as="geometry" />
        </mxCell>
        <mxCell id="3HXj9T3aMn66V00mDMrL-100" value="Query" style="edgeStyle=orthogonalEdgeStyle;rounded=0;orthogonalLoop=1;jettySize=auto;html=1;entryX=1;entryY=0;entryDx=0;entryDy=15;entryPerimeter=0;startArrow=none;startFill=0;exitX=1;exitY=0.5;exitDx=0;exitDy=0;" parent="aJg2sd6ix5H9_igBOGMG-42" source="3HXj9T3aMn66V00mDMrL-101" target="3HXj9T3aMn66V00mDMrL-91" edge="1">
          <mxGeometry relative="1" as="geometry">
            <Array as="points">
              <mxPoint x="250" y="560" />
              <mxPoint x="250" y="695" />
            </Array>
          </mxGeometry>
        </mxCell>
        <mxCell id="3HXj9T3aMn66V00mDMrL-85" style="edgeStyle=orthogonalEdgeStyle;rounded=0;orthogonalLoop=1;jettySize=auto;html=1;entryX=0.25;entryY=0;entryDx=0;entryDy=0;startArrow=classic;startFill=1;exitX=0.25;exitY=1;exitDx=0;exitDy=0;" parent="1" source="3HXj9T3aMn66V00mDMrL-8" target="3HXj9T3aMn66V00mDMrL-61" edge="1">
          <mxGeometry relative="1" as="geometry" />
        </mxCell>
        <mxCell id="3HXj9T3aMn66V00mDMrL-86" style="edgeStyle=orthogonalEdgeStyle;rounded=0;orthogonalLoop=1;jettySize=auto;html=1;startArrow=classic;startFill=1;exitX=0.75;exitY=1;exitDx=0;exitDy=0;" parent="1" source="3HXj9T3aMn66V00mDMrL-8" target="3HXj9T3aMn66V00mDMrL-58" edge="1">
          <mxGeometry relative="1" as="geometry" />
        </mxCell>
        <mxCell id="3HXj9T3aMn66V00mDMrL-87" style="edgeStyle=orthogonalEdgeStyle;rounded=0;orthogonalLoop=1;jettySize=auto;html=1;entryX=1;entryY=0.75;entryDx=0;entryDy=0;startArrow=classic;startFill=1;exitX=0.5;exitY=0;exitDx=0;exitDy=0;" parent="1" source="3HXj9T3aMn66V00mDMrL-77" target="3HXj9T3aMn66V00mDMrL-8" edge="1">
          <mxGeometry relative="1" as="geometry" />
        </mxCell>
        <mxCell id="3HXj9T3aMn66V00mDMrL-88" style="edgeStyle=orthogonalEdgeStyle;rounded=0;orthogonalLoop=1;jettySize=auto;html=1;entryX=1;entryY=0.5;entryDx=0;entryDy=0;startArrow=classic;startFill=1;" parent="1" source="3HXj9T3aMn66V00mDMrL-74" target="3HXj9T3aMn66V00mDMrL-8" edge="1">
          <mxGeometry relative="1" as="geometry">
            <Array as="points">
              <mxPoint x="1100" y="190" />
            </Array>
          </mxGeometry>
        </mxCell>
        <mxCell id="aJg2sd6ix5H9_igBOGMG-43" value="" style="group" vertex="1" connectable="0" parent="1">
          <mxGeometry x="370" y="-1650" width="350" height="760" as="geometry" />
        </mxCell>
        <mxCell id="aJg2sd6ix5H9_igBOGMG-44" value="" style="group" vertex="1" connectable="0" parent="aJg2sd6ix5H9_igBOGMG-43">
          <mxGeometry width="350" height="610" as="geometry" />
        </mxCell>
        <mxCell id="aJg2sd6ix5H9_igBOGMG-45" value="Global" style="rounded=0;whiteSpace=wrap;html=1;fillColor=#fff2cc;strokeColor=#d6b656;verticalAlign=top;fontStyle=1" vertex="1" parent="aJg2sd6ix5H9_igBOGMG-44">
          <mxGeometry width="350" height="610" as="geometry" />
        </mxCell>
        <mxCell id="aJg2sd6ix5H9_igBOGMG-46" value="ETL&lt;br&gt;Azure Data Factory" style="rounded=1;whiteSpace=wrap;html=1;" vertex="1" parent="aJg2sd6ix5H9_igBOGMG-44">
          <mxGeometry x="115" y="30" width="120" height="60" as="geometry" />
        </mxCell>
        <mxCell id="aJg2sd6ix5H9_igBOGMG-47" value="Producer" style="rounded=1;whiteSpace=wrap;html=1;" vertex="1" parent="aJg2sd6ix5H9_igBOGMG-44">
          <mxGeometry x="205" y="110" width="120" height="60" as="geometry" />
        </mxCell>
        <mxCell id="aJg2sd6ix5H9_igBOGMG-48" style="edgeStyle=orthogonalEdgeStyle;rounded=0;orthogonalLoop=1;jettySize=auto;html=1;entryX=0;entryY=0.5;entryDx=0;entryDy=0;startArrow=none;startFill=0;" edge="1" parent="aJg2sd6ix5H9_igBOGMG-44" source="aJg2sd6ix5H9_igBOGMG-46" target="aJg2sd6ix5H9_igBOGMG-47">
          <mxGeometry relative="1" as="geometry" />
        </mxCell>
        <mxCell id="aJg2sd6ix5H9_igBOGMG-49" value="Consumer" style="rounded=1;whiteSpace=wrap;html=1;" vertex="1" parent="aJg2sd6ix5H9_igBOGMG-44">
          <mxGeometry x="25" y="110" width="120" height="60" as="geometry" />
        </mxCell>
        <mxCell id="aJg2sd6ix5H9_igBOGMG-50" style="edgeStyle=orthogonalEdgeStyle;rounded=0;orthogonalLoop=1;jettySize=auto;html=1;entryX=1;entryY=0.5;entryDx=0;entryDy=0;startArrow=none;startFill=0;" edge="1" parent="aJg2sd6ix5H9_igBOGMG-44" source="aJg2sd6ix5H9_igBOGMG-46" target="aJg2sd6ix5H9_igBOGMG-49">
          <mxGeometry relative="1" as="geometry" />
        </mxCell>
        <mxCell id="aJg2sd6ix5H9_igBOGMG-51" value="API" style="rounded=1;whiteSpace=wrap;html=1;" vertex="1" parent="aJg2sd6ix5H9_igBOGMG-44">
          <mxGeometry x="115" y="530" width="120" height="60" as="geometry" />
        </mxCell>
        <mxCell id="aJg2sd6ix5H9_igBOGMG-52" value="WS" style="rounded=1;whiteSpace=wrap;html=1;" vertex="1" parent="aJg2sd6ix5H9_igBOGMG-44">
          <mxGeometry x="115" y="460" width="120" height="60" as="geometry" />
        </mxCell>
        <mxCell id="aJg2sd6ix5H9_igBOGMG-53" value="Logging" style="rounded=1;whiteSpace=wrap;html=1;" vertex="1" parent="aJg2sd6ix5H9_igBOGMG-44">
          <mxGeometry x="115" y="390" width="120" height="60" as="geometry" />
        </mxCell>
        <mxCell id="aJg2sd6ix5H9_igBOGMG-54" value="Monitoring" style="rounded=1;whiteSpace=wrap;html=1;" vertex="1" parent="aJg2sd6ix5H9_igBOGMG-44">
          <mxGeometry x="115" y="320" width="120" height="60" as="geometry" />
        </mxCell>
        <mxCell id="aJg2sd6ix5H9_igBOGMG-55" value="Tracking" style="rounded=1;whiteSpace=wrap;html=1;" vertex="1" parent="aJg2sd6ix5H9_igBOGMG-44">
          <mxGeometry x="115" y="250" width="120" height="60" as="geometry" />
        </mxCell>
        <mxCell id="aJg2sd6ix5H9_igBOGMG-56" value="Global&lt;br&gt;DB" style="shape=cylinder3;whiteSpace=wrap;html=1;boundedLbl=1;backgroundOutline=1;size=15;fillColor=#dae8fc;strokeColor=#6c8ebf;" vertex="1" parent="aJg2sd6ix5H9_igBOGMG-43">
          <mxGeometry x="145" y="680" width="60" height="80" as="geometry" />
        </mxCell>
        <mxCell id="aJg2sd6ix5H9_igBOGMG-57" style="edgeStyle=orthogonalEdgeStyle;rounded=0;orthogonalLoop=1;jettySize=auto;html=1;entryX=1;entryY=0;entryDx=0;entryDy=52.5;entryPerimeter=0;startArrow=classic;startFill=1;exitX=0.5;exitY=1;exitDx=0;exitDy=0;" edge="1" parent="aJg2sd6ix5H9_igBOGMG-43" source="aJg2sd6ix5H9_igBOGMG-47" target="aJg2sd6ix5H9_igBOGMG-56">
          <mxGeometry relative="1" as="geometry" />
        </mxCell>
        <mxCell id="aJg2sd6ix5H9_igBOGMG-58" style="edgeStyle=orthogonalEdgeStyle;rounded=0;orthogonalLoop=1;jettySize=auto;html=1;entryX=0;entryY=0;entryDx=0;entryDy=52.5;entryPerimeter=0;startArrow=classic;startFill=1;exitX=0.5;exitY=1;exitDx=0;exitDy=0;" edge="1" parent="aJg2sd6ix5H9_igBOGMG-43" source="aJg2sd6ix5H9_igBOGMG-49" target="aJg2sd6ix5H9_igBOGMG-56">
          <mxGeometry relative="1" as="geometry" />
        </mxCell>
        <mxCell id="aJg2sd6ix5H9_igBOGMG-59" value="Command" style="edgeStyle=orthogonalEdgeStyle;rounded=0;orthogonalLoop=1;jettySize=auto;html=1;startArrow=none;startFill=0;exitX=0;exitY=0.5;exitDx=0;exitDy=0;entryX=0;entryY=0;entryDx=0;entryDy=15;entryPerimeter=0;" edge="1" parent="aJg2sd6ix5H9_igBOGMG-43" source="aJg2sd6ix5H9_igBOGMG-51" target="aJg2sd6ix5H9_igBOGMG-56">
          <mxGeometry relative="1" as="geometry" />
        </mxCell>
        <mxCell id="aJg2sd6ix5H9_igBOGMG-60" value="Query" style="edgeStyle=orthogonalEdgeStyle;rounded=0;orthogonalLoop=1;jettySize=auto;html=1;entryX=1;entryY=0;entryDx=0;entryDy=15;entryPerimeter=0;startArrow=none;startFill=0;exitX=1;exitY=0.5;exitDx=0;exitDy=0;" edge="1" parent="aJg2sd6ix5H9_igBOGMG-43" source="aJg2sd6ix5H9_igBOGMG-51" target="aJg2sd6ix5H9_igBOGMG-56">
          <mxGeometry relative="1" as="geometry">
            <Array as="points">
              <mxPoint x="250" y="560" />
              <mxPoint x="250" y="695" />
            </Array>
          </mxGeometry>
        </mxCell>
        <mxCell id="aJg2sd6ix5H9_igBOGMG-61" value="Global&lt;br&gt;Messaging&lt;br&gt;Bus" style="rounded=0;whiteSpace=wrap;html=1;fillColor=#dae8fc;strokeColor=#6c8ebf;" vertex="1" parent="1">
          <mxGeometry x="480" y="-810" width="120" height="60" as="geometry" />
        </mxCell>
        <mxCell id="aJg2sd6ix5H9_igBOGMG-4" value="Tracking" style="rounded=1;whiteSpace=wrap;html=1;" vertex="1" parent="1">
          <mxGeometry x="1010" y="-375" width="120" height="60" as="geometry" />
        </mxCell>
        <mxCell id="aJg2sd6ix5H9_igBOGMG-2" value="Monitoring" style="rounded=1;whiteSpace=wrap;html=1;" vertex="1" parent="1">
          <mxGeometry x="1010" y="-260" width="120" height="60" as="geometry" />
        </mxCell>
        <mxCell id="3HXj9T3aMn66V00mDMrL-40" value="Logging" style="rounded=1;whiteSpace=wrap;html=1;" parent="1" vertex="1">
          <mxGeometry x="1010" y="-490" width="120" height="60" as="geometry" />
        </mxCell>
        <mxCell id="aJg2sd6ix5H9_igBOGMG-84" style="edgeStyle=orthogonalEdgeStyle;rounded=0;orthogonalLoop=1;jettySize=auto;html=1;startArrow=classic;startFill=1;" edge="1" parent="1" source="3HXj9T3aMn66V00mDMrL-90" target="3HXj9T3aMn66V00mDMrL-40">
          <mxGeometry relative="1" as="geometry" />
        </mxCell>
        <mxCell id="aJg2sd6ix5H9_igBOGMG-85" style="edgeStyle=orthogonalEdgeStyle;rounded=0;orthogonalLoop=1;jettySize=auto;html=1;entryX=0;entryY=0.5;entryDx=0;entryDy=0;startArrow=classic;startFill=1;" edge="1" parent="1" source="3HXj9T3aMn66V00mDMrL-90" target="aJg2sd6ix5H9_igBOGMG-4">
          <mxGeometry relative="1" as="geometry" />
        </mxCell>
        <mxCell id="aJg2sd6ix5H9_igBOGMG-86" style="edgeStyle=orthogonalEdgeStyle;rounded=0;orthogonalLoop=1;jettySize=auto;html=1;startArrow=classic;startFill=1;" edge="1" parent="1" source="3HXj9T3aMn66V00mDMrL-90" target="aJg2sd6ix5H9_igBOGMG-2">
          <mxGeometry relative="1" as="geometry" />
        </mxCell>
      </root>
    </mxGraphModel>
  </diagram>
</mxfile>
